<mxfile host="app.diagrams.net" modified="2024-04-25T07:37:47.049Z" agent="Mozilla/5.0 (Windows NT 10.0; Win64; x64) AppleWebKit/537.36 (KHTML, like Gecko) Chrome/124.0.0.0 Safari/537.36" etag="HmZlezeOZPMLE3sGLjWt" version="24.3.0" type="github">
  <diagram name="Page-1" id="9rCXkT4rTNYnttJWsDTz">
    <mxGraphModel dx="1235" dy="614" grid="1" gridSize="10" guides="1" tooltips="1" connect="1" arrows="1" fold="1" page="1" pageScale="1" pageWidth="827" pageHeight="1169" math="0" shadow="0">
      <root>
        <mxCell id="0" />
        <mxCell id="1" parent="0" />
        <mxCell id="ImFpT0YpljK9sxfZAI6b-14" value="" style="edgeStyle=orthogonalEdgeStyle;rounded=0;orthogonalLoop=1;jettySize=auto;html=1;" edge="1" parent="1" source="ImFpT0YpljK9sxfZAI6b-1" target="ImFpT0YpljK9sxfZAI6b-13">
          <mxGeometry relative="1" as="geometry" />
        </mxCell>
        <mxCell id="ImFpT0YpljK9sxfZAI6b-1" value="API" style="rounded=1;whiteSpace=wrap;html=1;" vertex="1" parent="1">
          <mxGeometry x="840" y="285" width="120" height="40" as="geometry" />
        </mxCell>
        <mxCell id="ImFpT0YpljK9sxfZAI6b-2" value="" style="rounded=0;whiteSpace=wrap;html=1;" vertex="1" parent="1">
          <mxGeometry x="50" y="120" width="460" height="570" as="geometry" />
        </mxCell>
        <mxCell id="ImFpT0YpljK9sxfZAI6b-4" value="From&amp;nbsp;" style="rounded=1;whiteSpace=wrap;html=1;" vertex="1" parent="1">
          <mxGeometry x="210" y="190" width="120" height="20" as="geometry" />
        </mxCell>
        <mxCell id="ImFpT0YpljK9sxfZAI6b-5" value="To" style="rounded=1;whiteSpace=wrap;html=1;" vertex="1" parent="1">
          <mxGeometry x="210" y="220" width="120" height="20" as="geometry" />
        </mxCell>
        <mxCell id="ImFpT0YpljK9sxfZAI6b-7" value="Date" style="rounded=1;whiteSpace=wrap;html=1;" vertex="1" parent="1">
          <mxGeometry x="210" y="260" width="120" height="20" as="geometry" />
        </mxCell>
        <mxCell id="ImFpT0YpljK9sxfZAI6b-8" value="Search button" style="rounded=1;whiteSpace=wrap;html=1;" vertex="1" parent="1">
          <mxGeometry x="210" y="330" width="120" height="20" as="geometry" />
        </mxCell>
        <mxCell id="ImFpT0YpljK9sxfZAI6b-9" value="FRONTEND" style="text;html=1;align=center;verticalAlign=middle;resizable=0;points=[];autosize=1;strokeColor=none;fillColor=none;" vertex="1" parent="1">
          <mxGeometry x="220" y="90" width="90" height="30" as="geometry" />
        </mxCell>
        <mxCell id="ImFpT0YpljK9sxfZAI6b-10" value="BACKEND" style="text;html=1;align=center;verticalAlign=middle;resizable=0;points=[];autosize=1;strokeColor=none;fillColor=none;" vertex="1" parent="1">
          <mxGeometry x="1170" y="100" width="80" height="30" as="geometry" />
        </mxCell>
        <mxCell id="ImFpT0YpljK9sxfZAI6b-17" value="" style="edgeStyle=orthogonalEdgeStyle;rounded=0;orthogonalLoop=1;jettySize=auto;html=1;exitX=1;exitY=0.076;exitDx=0;exitDy=0;exitPerimeter=0;" edge="1" parent="1" source="ImFpT0YpljK9sxfZAI6b-13" target="ImFpT0YpljK9sxfZAI6b-15">
          <mxGeometry relative="1" as="geometry">
            <mxPoint x="1210" y="180" as="sourcePoint" />
            <Array as="points">
              <mxPoint x="1200" y="180" />
            </Array>
          </mxGeometry>
        </mxCell>
        <mxCell id="ImFpT0YpljK9sxfZAI6b-18" value="Request" style="edgeLabel;html=1;align=center;verticalAlign=middle;resizable=0;points=[];" vertex="1" connectable="0" parent="ImFpT0YpljK9sxfZAI6b-17">
          <mxGeometry x="-0.0286" y="-1" relative="1" as="geometry">
            <mxPoint as="offset" />
          </mxGeometry>
        </mxCell>
        <mxCell id="ImFpT0YpljK9sxfZAI6b-20" style="edgeStyle=orthogonalEdgeStyle;rounded=0;orthogonalLoop=1;jettySize=auto;html=1;exitX=1;exitY=0.5;exitDx=0;exitDy=0;entryX=0;entryY=0.362;entryDx=0;entryDy=0;entryPerimeter=0;" edge="1" parent="1" target="ImFpT0YpljK9sxfZAI6b-19">
          <mxGeometry relative="1" as="geometry">
            <mxPoint x="1200" y="317.46" as="sourcePoint" />
            <mxPoint x="1560" y="342.46" as="targetPoint" />
          </mxGeometry>
        </mxCell>
        <mxCell id="ImFpT0YpljK9sxfZAI6b-21" value="Text" style="edgeLabel;html=1;align=center;verticalAlign=middle;resizable=0;points=[];" vertex="1" connectable="0" parent="ImFpT0YpljK9sxfZAI6b-20">
          <mxGeometry x="-0.0312" y="2" relative="1" as="geometry">
            <mxPoint as="offset" />
          </mxGeometry>
        </mxCell>
        <mxCell id="ImFpT0YpljK9sxfZAI6b-23" value="Request" style="edgeLabel;html=1;align=center;verticalAlign=middle;resizable=0;points=[];" vertex="1" connectable="0" parent="ImFpT0YpljK9sxfZAI6b-20">
          <mxGeometry x="-0.0444" y="2" relative="1" as="geometry">
            <mxPoint as="offset" />
          </mxGeometry>
        </mxCell>
        <mxCell id="ImFpT0YpljK9sxfZAI6b-13" value="Service" style="rounded=1;whiteSpace=wrap;html=1;" vertex="1" parent="1">
          <mxGeometry x="1080" y="160" width="120" height="290" as="geometry" />
        </mxCell>
        <mxCell id="ImFpT0YpljK9sxfZAI6b-15" value="Website&lt;div&gt;https://eticket.railway.uz/en/home, &quot;GET&quot;&lt;br&gt;&lt;/div&gt;&lt;div&gt;task: get source page and extract this &quot;this.localeStations&quot; array&lt;/div&gt;" style="rounded=1;whiteSpace=wrap;html=1;" vertex="1" parent="1">
          <mxGeometry x="1560" y="120" width="280" height="120" as="geometry" />
        </mxCell>
        <mxCell id="ImFpT0YpljK9sxfZAI6b-19" value="&lt;span style=&quot;color: rgb(25, 29, 23); font-family: system-ui, sans-serif; text-align: start; background-color: rgb(248, 251, 241);&quot;&gt;https://eticket.railway.uz/api/v3/trains/availability/space/between/stations, &quot;POST&quot;&lt;/span&gt;&lt;div style=&quot;text-align: start;&quot;&gt;&lt;font face=&quot;system-ui, sans-serif&quot; color=&quot;#191d17&quot;&gt;&lt;span style=&quot;background-color: rgb(248, 251, 241);&quot;&gt;payload:&amp;nbsp;&lt;/span&gt;&lt;/font&gt;&lt;/div&gt;&lt;ol style=&quot;box-sizing: border-box; min-width: 0px; min-height: 0px; list-style-type: none; padding-left: 10px; color: rgb(25, 29, 23); font-family: monospace; text-align: start; white-space-collapse: preserve; background-color: rgb(248, 251, 241);&quot; role=&quot;group&quot; class=&quot;children expanded&quot;&gt;&lt;li style=&quot;box-sizing: border-box; min-width: 0px; min-height: 12px; text-overflow: ellipsis; white-space: nowrap; position: relative; display: block; align-items: center; user-select: text; padding-left: 5px; line-height: 20px; margin-top: 1px; margin-left: 10px;&quot; data-object-property-name-for-test=&quot;detailNumPlaces&quot; role=&quot;treeitem&quot;&gt;&lt;span style=&quot;box-sizing: border-box; min-width: 0px; min-height: 0px; overflow: hidden; line-height: 16px; display: flex;&quot; class=&quot;name-and-value&quot;&gt;&lt;span style=&quot;box-sizing: border-box; min-width: 0px; min-height: 0px; color: var(--sys-color-token-tag); flex-shrink: 0;&quot; title=&quot;detailNumPlaces&quot; class=&quot;name&quot;&gt;detailNumPlaces&lt;/span&gt;&lt;span style=&quot;box-sizing: border-box; min-width: 0px; min-height: 0px; white-space-collapse: preserve; flex-shrink: 0;&quot; class=&quot;separator&quot;&gt;: &lt;/span&gt;&lt;span style=&quot;box-sizing: border-box; min-width: 0px; min-height: 0px; color: var(--sys-color-token-attribute-value);&quot; title=&quot;1&quot; class=&quot;object-value-number value&quot;&gt;1&lt;/span&gt;&lt;/span&gt;&lt;/li&gt;&lt;li style=&quot;box-sizing: border-box; min-width: 0px; min-height: 12px; text-overflow: ellipsis; white-space: nowrap; position: relative; display: flex; align-items: center; user-select: text; padding-left: 5px; line-height: 20px; margin-top: 0px;&quot; aria-expanded=&quot;true&quot; class=&quot;parent expanded&quot; data-object-property-name-for-test=&quot;direction&quot; role=&quot;treeitem&quot;&gt;&lt;span style=&quot;box-sizing: border-box; min-width: 0px; min-height: 0px; overflow: hidden; line-height: 16px; display: flex;&quot; class=&quot;name-and-value&quot;&gt;&lt;span style=&quot;box-sizing: border-box; min-width: 0px; min-height: 0px; color: var(--sys-color-token-tag); flex-shrink: 0;&quot; title=&quot;direction&quot; class=&quot;name&quot;&gt;direction&lt;/span&gt;&lt;span style=&quot;box-sizing: border-box; min-width: 0px; min-height: 0px; white-space-collapse: preserve; flex-shrink: 0;&quot; class=&quot;separator&quot;&gt;: &lt;/span&gt;&lt;span style=&quot;box-sizing: border-box; min-width: 0px; min-height: 0px;&quot; title=&quot;[{depDate: &amp;quot;25.04.2024&amp;quot;, fullday: true, type: &amp;quot;Forward&amp;quot;}]&quot; class=&quot;object-value-array value&quot;&gt;[{depDate: &quot;25.04.2024&quot;, fullday: true, type: &quot;Forward&quot;}]&lt;/span&gt;&lt;/span&gt;&lt;/li&gt;&lt;ol style=&quot;box-sizing: border-box; min-width: 0px; min-height: 0px; list-style-type: none; padding-left: 10px;&quot; role=&quot;group&quot; class=&quot;children expanded&quot;&gt;&lt;li style=&quot;box-sizing: border-box; min-width: 0px; min-height: 12px; text-overflow: ellipsis; white-space: nowrap; position: relative; display: flex; align-items: center; user-select: text; padding-left: 5px; line-height: 20px; margin-top: 0px;&quot; aria-expanded=&quot;false&quot; class=&quot;parent&quot; data-object-property-name-for-test=&quot;0&quot; role=&quot;treeitem&quot;&gt;&lt;span style=&quot;box-sizing: border-box; min-width: 0px; min-height: 0px; overflow: hidden; line-height: 16px; display: flex;&quot; class=&quot;name-and-value&quot;&gt;&lt;span style=&quot;box-sizing: border-box; min-width: 0px; min-height: 0px; color: var(--sys-color-token-tag); flex-shrink: 0;&quot; title=&quot;direction[0]&quot; class=&quot;name&quot;&gt;0&lt;/span&gt;&lt;span style=&quot;box-sizing: border-box; min-width: 0px; min-height: 0px; white-space-collapse: preserve; flex-shrink: 0;&quot; class=&quot;separator&quot;&gt;: &lt;/span&gt;&lt;span style=&quot;box-sizing: border-box; min-width: 0px; min-height: 0px;&quot; title=&quot;{depDate: &amp;quot;25.04.2024&amp;quot;, fullday: true, type: &amp;quot;Forward&amp;quot;}&quot; class=&quot;object-value-object value&quot;&gt;{depDate: &quot;25.04.2024&quot;, fullday: true, type: &quot;Forward&quot;}&lt;/span&gt;&lt;/span&gt;&lt;/li&gt;&lt;/ol&gt;&lt;li style=&quot;box-sizing: border-box; min-width: 0px; min-height: 12px; text-overflow: ellipsis; white-space: nowrap; position: relative; display: block; align-items: center; user-select: text; padding-left: 5px; line-height: 20px; margin-top: 1px; margin-left: 10px;&quot; data-object-property-name-for-test=&quot;showWithoutPlaces&quot; role=&quot;treeitem&quot;&gt;&lt;span style=&quot;box-sizing: border-box; min-width: 0px; min-height: 0px; overflow: hidden; line-height: 16px; display: flex;&quot; class=&quot;name-and-value&quot;&gt;&lt;span style=&quot;box-sizing: border-box; min-width: 0px; min-height: 0px; color: var(--sys-color-token-tag); flex-shrink: 0;&quot; title=&quot;showWithoutPlaces&quot; class=&quot;name&quot;&gt;showWithoutPlaces&lt;/span&gt;&lt;span style=&quot;box-sizing: border-box; min-width: 0px; min-height: 0px; white-space-collapse: preserve; flex-shrink: 0;&quot; class=&quot;separator&quot;&gt;: &lt;/span&gt;&lt;span style=&quot;box-sizing: border-box; min-width: 0px; min-height: 0px; color: var(--sys-color-token-attribute-value);&quot; title=&quot;0&quot; class=&quot;object-value-number value&quot;&gt;0&lt;/span&gt;&lt;/span&gt;&lt;/li&gt;&lt;li style=&quot;box-sizing: border-box; min-width: 0px; min-height: 12px; text-overflow: ellipsis; white-space: nowrap; position: relative; display: block; align-items: center; user-select: text; padding-left: 5px; line-height: 20px; margin-top: 1px; margin-left: 10px;&quot; data-object-property-name-for-test=&quot;stationFrom&quot; role=&quot;treeitem&quot;&gt;&lt;span style=&quot;box-sizing: border-box; min-width: 0px; min-height: 0px; overflow: hidden; line-height: 16px; display: flex;&quot; class=&quot;name-and-value&quot;&gt;&lt;span style=&quot;box-sizing: border-box; min-width: 0px; min-height: 0px; color: var(--sys-color-token-tag); flex-shrink: 0;&quot; title=&quot;stationFrom&quot; class=&quot;name&quot;&gt;stationFrom&lt;/span&gt;&lt;span style=&quot;box-sizing: border-box; min-width: 0px; min-height: 0px; white-space-collapse: preserve; flex-shrink: 0;&quot; class=&quot;separator&quot;&gt;: &lt;/span&gt;&lt;span style=&quot;box-sizing: border-box; min-width: 0px; min-height: 0px; white-space-collapse: preserve; unicode-bidi: -webkit-isolate; color: var(--sys-color-token-property-special);&quot; title=&quot;2900000&quot; class=&quot;object-value-string value&quot;&gt;&quot;2900000&quot;&lt;/span&gt;&lt;/span&gt;&lt;/li&gt;&lt;li style=&quot;box-sizing: border-box; min-width: 0px; min-height: 12px; outline-width: 0px; text-overflow: ellipsis; white-space: nowrap; position: relative; display: block; align-items: center; user-select: text; padding-left: 5px; line-height: 20px; margin-top: 1px; margin-left: 10px; color: var(--sys-color-on-tonal-container);&quot; aria-selected=&quot;true&quot; tabindex=&quot;0&quot; class=&quot;force-white-icons selected&quot; data-object-property-name-for-test=&quot;stationTo&quot; role=&quot;treeitem&quot;&gt;&lt;div style=&quot;box-sizing: border-box; min-width: 0px; min-height: 0px; position: absolute; inset: 0px; z-index: -1; margin-left: -10000px; background-color: var(--sys-color-tonal-container); color: inherit;&quot; class=&quot;selection fill&quot;&gt;&lt;/div&gt;&lt;span style=&quot;box-sizing: border-box; min-width: 0px; min-height: 0px; overflow: hidden; line-height: 16px; display: flex; color: inherit;&quot; class=&quot;name-and-value&quot;&gt;&lt;span style=&quot;box-sizing: border-box; min-width: 0px; min-height: 0px; color: inherit; flex-shrink: 0;&quot; title=&quot;stationTo&quot; class=&quot;name&quot;&gt;stationTo&lt;/span&gt;&lt;span style=&quot;box-sizing: border-box; min-width: 0px; min-height: 0px; white-space-collapse: preserve; flex-shrink: 0; color: inherit;&quot; class=&quot;separator&quot;&gt;: &lt;/span&gt;&lt;span style=&quot;box-sizing: border-box; min-width: 0px; min-height: 0px; white-space-collapse: preserve; unicode-bidi: -webkit-isolate; color: inherit;&quot; title=&quot;2900800&quot; class=&quot;object-value-string value&quot;&gt;&quot;2900800&quot;&lt;/span&gt;&lt;/span&gt;&lt;/li&gt;&lt;/ol&gt;&lt;div style=&quot;text-align: left;&quot;&gt;&lt;font face=&quot;monospace&quot; color=&quot;#191d17&quot;&gt;&lt;span style=&quot;white-space: pre;&quot;&gt;Response : list of trains&lt;/span&gt;&lt;/font&gt;&lt;/div&gt;" style="rounded=1;whiteSpace=wrap;html=1;" vertex="1" parent="1">
          <mxGeometry x="1560" y="330" width="600" height="195" as="geometry" />
        </mxCell>
      </root>
    </mxGraphModel>
  </diagram>
</mxfile>
